<mxfile host="2df29ca8-e08d-448c-b4e3-dc0d1864b690" modified="2020-09-26T03:23:35.987Z" agent="5.0 (Macintosh; Intel Mac OS X 10_15_5) AppleWebKit/537.36 (KHTML, like Gecko) Code/1.49.1 Chrome/83.0.4103.122 Electron/9.2.1 Safari/537.36" etag="akAiuGBaZkXn2qIVyUoF" version="13.1.3">
    <diagram id="6hGFLwfOUW9BJ-s0fimq" name="Page-1">
        <mxGraphModel dx="587" dy="304" grid="1" gridSize="10" guides="1" tooltips="1" connect="1" arrows="1" fold="1" page="1" pageScale="1" pageWidth="827" pageHeight="1169" math="0" shadow="0">
            <root>
                <mxCell id="0"/>
                <mxCell id="1" parent="0"/>
                <mxCell id="2" value="xlan-c" style="shape=umlLifeline;perimeter=lifelinePerimeter;whiteSpace=wrap;html=1;container=1;collapsible=0;recursiveResize=0;outlineConnect=0;" parent="1" vertex="1">
                    <mxGeometry x="390" y="110" width="100" height="300" as="geometry"/>
                </mxCell>
                <mxCell id="14" value="" style="html=1;points=[];perimeter=orthogonalPerimeter;" parent="2" vertex="1">
                    <mxGeometry x="40" y="180" width="10" height="70" as="geometry"/>
                </mxCell>
                <mxCell id="3" value="xlan-s" style="shape=umlLifeline;perimeter=lifelinePerimeter;whiteSpace=wrap;html=1;container=1;collapsible=0;recursiveResize=0;outlineConnect=0;" parent="1" vertex="1">
                    <mxGeometry x="230" y="110" width="100" height="300" as="geometry"/>
                </mxCell>
                <mxCell id="6" value="" style="html=1;points=[];perimeter=orthogonalPerimeter;" parent="3" vertex="1">
                    <mxGeometry x="50" y="80" width="10" height="50" as="geometry"/>
                </mxCell>
                <mxCell id="12" value="" style="html=1;points=[];perimeter=orthogonalPerimeter;" parent="3" vertex="1">
                    <mxGeometry x="40" y="170" width="10" height="90" as="geometry"/>
                </mxCell>
                <mxCell id="26" value="" style="html=1;points=[];perimeter=orthogonalPerimeter;" parent="3" vertex="1">
                    <mxGeometry x="50" y="210" width="10" height="20" as="geometry"/>
                </mxCell>
                <mxCell id="7" value="try connect" style="html=1;verticalAlign=bottom;endArrow=block;entryX=0.933;entryY=-0.003;entryDx=0;entryDy=0;entryPerimeter=0;" parent="1" source="2" target="6" edge="1">
                    <mxGeometry relative="1" as="geometry">
                        <mxPoint x="119.5" y="190.0000000000001" as="sourcePoint"/>
                        <mxPoint x="290" y="190" as="targetPoint"/>
                    </mxGeometry>
                </mxCell>
                <mxCell id="8" value="command socket" style="html=1;verticalAlign=bottom;endArrow=open;dashed=1;endSize=8;exitX=1.333;exitY=0.977;exitDx=0;exitDy=0;exitPerimeter=0;" parent="1" source="6" target="2" edge="1">
                    <mxGeometry relative="1" as="geometry">
                        <mxPoint x="119.5" y="266" as="targetPoint"/>
                        <mxPoint x="300" y="236" as="sourcePoint"/>
                    </mxGeometry>
                </mxCell>
                <mxCell id="10" value="user" style="shape=umlLifeline;perimeter=lifelinePerimeter;whiteSpace=wrap;html=1;container=1;collapsible=0;recursiveResize=0;outlineConnect=0;" parent="1" vertex="1">
                    <mxGeometry x="70" y="110" width="100" height="300" as="geometry"/>
                </mxCell>
                <mxCell id="13" value="connect server A" style="html=1;verticalAlign=bottom;startArrow=oval;endArrow=block;startSize=8;" parent="1" source="10" target="12" edge="1">
                    <mxGeometry relative="1" as="geometry">
                        <mxPoint x="210" y="280" as="sourcePoint"/>
                    </mxGeometry>
                </mxCell>
                <mxCell id="15" value="socket 1: new connection" style="html=1;verticalAlign=bottom;endArrow=block;entryX=0;entryY=0;" parent="1" source="3" target="14" edge="1">
                    <mxGeometry relative="1" as="geometry">
                        <mxPoint x="360" y="280" as="sourcePoint"/>
                    </mxGeometry>
                </mxCell>
                <mxCell id="18" value="socket 4" style="html=1;verticalAlign=bottom;endArrow=block;exitX=0.033;exitY=0.971;exitDx=0;exitDy=0;exitPerimeter=0;" parent="1" source="12" target="10" edge="1">
                    <mxGeometry width="80" relative="1" as="geometry">
                        <mxPoint x="180" y="350" as="sourcePoint"/>
                        <mxPoint x="260" y="350" as="targetPoint"/>
                    </mxGeometry>
                </mxCell>
                <mxCell id="19" value="server" style="shape=umlLifeline;perimeter=lifelinePerimeter;whiteSpace=wrap;html=1;container=1;collapsible=0;recursiveResize=0;outlineConnect=0;" parent="1" vertex="1">
                    <mxGeometry x="530" y="110" width="100" height="300" as="geometry"/>
                </mxCell>
                <mxCell id="21" value="" style="html=1;points=[];perimeter=orthogonalPerimeter;" parent="19" vertex="1">
                    <mxGeometry x="40" y="200" width="10" height="20" as="geometry"/>
                </mxCell>
                <mxCell id="23" value="socket 2" style="html=1;verticalAlign=bottom;endArrow=open;dashed=1;endSize=8;exitX=0;exitY=0.95;" parent="1" source="21" target="2" edge="1">
                    <mxGeometry relative="1" as="geometry">
                        <mxPoint x="480" y="376" as="targetPoint"/>
                    </mxGeometry>
                </mxCell>
                <mxCell id="22" value="connect" style="html=1;verticalAlign=bottom;endArrow=block;entryX=0;entryY=0;" parent="1" source="2" target="21" edge="1">
                    <mxGeometry relative="1" as="geometry">
                        <mxPoint x="480" y="300" as="sourcePoint"/>
                    </mxGeometry>
                </mxCell>
                <mxCell id="27" value="connect" style="html=1;verticalAlign=bottom;endArrow=block;exitX=-0.25;exitY=0.426;exitDx=0;exitDy=0;exitPerimeter=0;" parent="1" source="14" target="26" edge="1">
                    <mxGeometry relative="1" as="geometry">
                        <mxPoint x="420" y="320" as="sourcePoint"/>
                    </mxGeometry>
                </mxCell>
                <mxCell id="28" value="socket 3" style="html=1;verticalAlign=bottom;endArrow=open;dashed=1;endSize=8;exitX=1;exitY=0.95;entryX=-0.15;entryY=0.726;entryDx=0;entryDy=0;entryPerimeter=0;" parent="1" source="26" target="14" edge="1">
                    <mxGeometry relative="1" as="geometry">
                        <mxPoint x="350" y="357" as="targetPoint"/>
                    </mxGeometry>
                </mxCell>
            </root>
        </mxGraphModel>
    </diagram>
</mxfile>